<svg width="800" height="600" xmlns="http://www.w3.org/2000/svg">
 <g>
  <title>Layer 1</title>
  <ellipse fill="none" stroke="#000" cx="223" cy="311" id="svg_5" rx="20" ry="127"/>
  <ellipse fill="none" stroke="#000" cx="246" cy="314" id="svg_6" rx="14" ry="127"/>
  <ellipse fill="none" stroke="#000" cx="242" cy="303.5" id="svg_7" rx="110" ry="17.5"/>
  <path fill="#000000" stroke="#000" d="m314.34415,266.70222c-2.58115,-3.44584 -5.739,-6.2356 -8.90655,-8.18715c-3.69603,2.00034 -8.19759,3.21841 -13.10518,3.21841c-4.91721,0 -9.42525,-1.22044 -13.11477,-3.21841c-3.16754,1.95155 -6.32861,4.74131 -8.9161,8.18715c-6.00645,8.00024 -6.66701,16.20646 -1.47912,18.33422c2.32336,0.95849 4.75936,0.24409 7.27603,-1.54792c-0.44146,1.81698 -0.69926,3.78635 -0.69926,5.84626c0,9.15166 4.81096,16.56487 10.73994,16.56487c3.5736,0 5.34263,-2.69931 6.19328,-6.83218c0.84752,4.13287 2.61654,6.83218 6.17718,6.83218c5.93873,0 10.74973,-7.41321 10.74973,-16.56487c0,-2.05991 -0.25789,-4.02928 -0.70894,-5.84626c2.52306,1.79201 4.95586,2.50641 7.28566,1.54792c5.1847,-2.12776 4.51438,-10.33398 -1.4919,-18.33422l0,0zm-22.01807,-8.09072c9.97621,0 18.06744,-5.97961 18.06744,-13.35592s-8.09123,-13.35593 -18.06744,-13.35593c-9.9796,0 -18.07722,5.9808 -18.07722,13.35593s8.09762,13.35592 18.07722,13.35592z" id="svg_15"/>
  <path fill="#ff7f00" stroke="#000" d="m186.67267,270.03951c-2.81803,-3.2375 -6.26972,-5.85775 -9.73025,-7.68955c-4.03785,1.87881 -8.95577,3.02171 -14.32262,3.02171c-5.37028,0 -10.29528,-1.14629 -14.32789,-3.02171c-3.46053,1.8318 -6.91219,4.45205 -9.74083,7.68955c-6.56021,7.51283 -7.28539,15.22019 -1.61938,17.21975c2.53819,0.90022 5.20137,0.22815 7.95076,-1.45381c-0.48406,1.70542 -0.77098,3.55511 -0.77098,5.49091c0,8.59537 5.2559,15.55792 11.73517,15.55792c3.90232,0 5.83679,-2.53628 6.76435,-6.41794c0.92759,3.88166 2.86026,6.41794 6.75387,6.41794c6.488,0 11.74389,-6.96255 11.74389,-15.55792c0,-1.9358 -0.2816,-3.78549 -0.77443,-5.49091c2.75818,1.68196 5.41604,2.35403 7.95948,1.45381c5.67488,-1.99956 4.94083,-9.70692 -1.62113,-17.21975l-0.00001,0zm-24.05813,-7.59891c10.90433,0 19.74393,-5.61731 19.74393,-12.54412s-8.8396,-12.54408 -19.74393,-12.54408c-10.90258,0 -19.74925,5.61614 -19.74925,12.54408s8.84666,12.54412 19.74925,12.54412zm13.48827,-25.74801c5.6977,1.33304 2.26885,-2.12593 2.26885,-4.48891s3.51686,-5.25271 -2.26885,-4.07734c-6.07264,1.23682 -10.99587,1.91677 -10.99587,4.2831s4.92323,2.86066 10.99587,4.28315zm-13.4513,-1.68305c3.60837,0 1.59296,-1.16081 1.59296,-2.59114c0,-1.43143 2.02069,-2.5889 -1.59296,-2.5889s-1.725,1.16082 -1.725,2.5889c0,1.43367 -1.88342,2.59114 1.725,2.59114zm-13.52877,1.68305c6.07264,-1.41916 10.99583,-1.91792 10.99583,-4.28315s-4.92319,-3.04628 -10.99583,-4.2831c-5.78572,-1.17872 -2.27064,1.71209 -2.27064,4.07734s-3.43235,5.8197 2.27064,4.48891z" id="svg_16"/>
 </g>

</svg>